<svg width="40" height="40" viewBox="0 0 40 40" fill="none" xmlns="http://www.w3.org/2000/svg">
<rect width="40" height="40" rx="20" fill="#212828"/>
<path d="M13.996 17C15.409 17 16.156 16.253 16.701 15.707C17.191 15.217 17.432 15 17.993 15C18.554 15 18.795 15.217 19.285 15.707C19.83 16.253 20.577 17 21.991 17C23.406 17 24.154 16.253 24.701 15.707C25.192 15.217 25.433 15 25.996 15C26.559 15 26.8 15.217 27.291 15.707C27.6933 16.1093 28.2052 16.6207 29.0128 16.862C29.542 17.0202 30 16.5523 30 16C30 15.4477 29.5089 15.0136 29.088 14.656C28.9722 14.5577 28.8494 14.4371 28.705 14.293C28.159 13.747 27.411 13 25.996 13C24.581 13 23.834 13.747 23.287 14.292C22.796 14.783 22.556 15 21.991 15C21.429 15 21.189 14.783 20.699 14.293C20.154 13.747 19.407 13 17.993 13C16.579 13 15.832 13.747 15.287 14.293C14.797 14.783 14.557 15 13.996 15C13.435 15 13.195 14.783 12.705 14.293C12.3037 13.8909 11.7928 13.3799 10.9871 13.1384C10.4581 12.9798 10 13.4477 10 14C10 14.5523 10.4911 14.9873 10.9111 15.3459C11.0259 15.4439 11.1478 15.5638 11.291 15.707C11.836 16.253 12.583 17 13.996 17ZM13.996 22C15.409 22 16.156 21.253 16.701 20.707C17.191 20.217 17.432 20 17.993 20C18.554 20 18.795 20.217 19.285 20.707C19.83 21.253 20.577 22 21.991 22C23.406 22 24.154 21.253 24.701 20.707C25.192 20.217 25.433 20 25.996 20C26.559 20 26.8 20.217 27.291 20.707C27.6933 21.1093 28.2052 21.6207 29.0128 21.862C29.542 22.0202 30 21.5523 30 21C30 20.4477 29.5089 20.0136 29.088 19.656C28.9722 19.5577 28.8494 19.4371 28.705 19.293C28.159 18.747 27.411 18 25.996 18C24.581 18 23.834 18.747 23.287 19.292C22.796 19.783 22.556 20 21.991 20C21.429 20 21.189 19.783 20.699 19.293C20.154 18.747 19.407 18 17.993 18C16.579 18 15.832 18.747 15.287 19.293C14.797 19.783 14.557 20 13.996 20C13.435 20 13.195 19.783 12.705 19.293C12.3037 18.8909 11.7928 18.3799 10.9871 18.1384C10.4581 17.9798 10 18.4477 10 19C10 19.5523 10.4911 19.9873 10.9111 20.3459C11.0259 20.4439 11.1478 20.5638 11.291 20.707C11.836 21.253 12.583 22 13.996 22ZM13.996 27C15.409 27 16.156 26.253 16.701 25.707C17.191 25.217 17.432 25 17.993 25C18.554 25 18.795 25.217 19.285 25.707C19.83 26.253 20.577 27 21.991 27C23.406 27 24.154 26.253 24.701 25.707C25.192 25.217 25.433 25 25.996 25C26.559 25 26.8 25.217 27.291 25.707C27.6933 26.1093 28.2052 26.6207 29.0128 26.862C29.542 27.0202 30 26.5523 30 26C30 25.4477 29.5089 25.0136 29.088 24.656C28.9722 24.5577 28.8494 24.4371 28.705 24.293C28.159 23.747 27.411 23 25.996 23C24.581 23 23.834 23.747 23.287 24.292C22.796 24.783 22.556 25 21.991 25C21.429 25 21.189 24.783 20.699 24.293C20.154 23.747 19.407 23 17.993 23C16.579 23 15.832 23.747 15.287 24.293C14.797 24.783 14.557 25 13.996 25C13.435 25 13.195 24.783 12.705 24.293C12.3037 23.8909 11.7928 23.3799 10.9871 23.1384C10.4581 22.9798 10 23.4477 10 24C10 24.5523 10.4911 24.9873 10.9111 25.3459C11.0259 25.4439 11.1478 25.5638 11.291 25.707C11.836 26.253 12.583 27 13.996 27Z" fill="white"/>
</svg>
