<svg width="40" height="40" viewBox="0 0 40 40" fill="none" xmlns="http://www.w3.org/2000/svg">
<rect width="40" height="40" rx="20" fill="#212828"/>
<path d="M28 17C27.6095 16.6095 26.9765 16.6095 26.586 17L25.224 18.362C24.6026 17.6586 23.8463 17.0869 23 16.681V12C23.5523 12 24 11.5523 24 11C24 10.4477 23.5523 10 23 10H17C16.4477 10 16 10.4477 16 11C16 11.5523 16.4477 12 17 12V16.681C15.8048 17.2493 14.7948 18.1443 14.0869 19.2625C13.3791 20.3808 13.0022 21.6765 13 23C13 26.859 16.141 30 20 30C23.859 30 27 26.859 27 23C26.999 21.9862 26.7765 20.9848 26.348 20.066L28 18.414C28.3905 18.0235 28.3905 17.3905 28 17ZM18.334 18.291C18.7331 18.1502 19 17.773 19 17.3498V12H21V17.3498C21 17.773 21.2669 18.1502 21.666 18.291C22.4762 18.5804 23.1981 19.0738 23.7622 19.7234C24.3262 20.3731 24.7132 21.1572 24.886 22H15.114C15.2868 21.1572 15.6738 20.3731 16.2378 19.7234C16.8019 19.0738 17.5238 18.5804 18.334 18.291ZM20 28C18.848 27.9985 17.7318 27.5998 16.8396 26.8711C15.9474 26.1424 15.3337 25.1284 15.102 24H24.899C24.6669 25.1284 24.053 26.1424 23.1606 26.871C22.2683 27.5996 21.152 27.9983 20 28Z" fill="white"/>
</svg>
