<svg width="40" height="40" viewBox="0 0 40 40" fill="none" xmlns="http://www.w3.org/2000/svg">
<rect width="40" height="40" rx="20" fill="#212828"/>
<path d="M24.97 12.757C24.9178 12.5468 24.7987 12.3593 24.6307 12.2227C24.4627 12.0861 24.2548 12.0077 24.0384 11.9995C23.822 11.9913 23.6088 12.0536 23.4309 12.177C23.253 12.3005 23.12 12.4784 23.052 12.684L19.866 22.238L16.914 15.594C16.8336 15.4148 16.7024 15.2632 16.5365 15.158C16.3707 15.0528 16.1776 14.9986 15.9813 15.0022C15.7849 15.0059 15.594 15.0671 15.4321 15.1784C15.2703 15.2896 15.1447 15.446 15.071 15.628L13.323 20H11C10.4477 20 10 20.4477 10 21C10 21.5523 10.4477 22 11 22H13.323C14.146 22 14.875 21.506 15.179 20.743L16.048 18.571L19.085 25.406C19.247 25.769 19.606 26 20 26L20.048 25.999C20.2495 25.9894 20.4433 25.919 20.604 25.7971C20.7646 25.6752 20.8846 25.5075 20.948 25.316L23.862 16.574L24.841 20.485C24.9484 20.9181 25.1978 21.3027 25.5495 21.5774C25.9012 21.852 26.3348 22.0008 26.781 22H29C29.5523 22 30 21.5523 30 21C30 20.4477 29.5523 20 29 20H26.78L24.97 12.757Z" fill="white"/>
</svg>
